<svg xmlns="http://www.w3.org/2000/svg" xmlns:xlink="http://www.w3.org/1999/xlink" preserveAspectRatio="xMidYMid" width="65" height="35" viewBox="0 0 65 35">
  <defs>
    <style>
      .cls-1 {
        fill: #fff;
        fill-rule: evenodd;
      }
    </style>
  </defs>
  <path d="M62.886,35.006 L2.113,35.006 C0.956,35.006 0.014,34.479 0.014,33.830 L0.014,28.605 C0.014,27.956 0.956,27.429 2.113,27.429 L62.887,27.429 C64.044,27.429 64.986,27.956 64.986,28.605 L64.986,33.830 C64.986,34.479 64.044,35.006 62.886,35.006 ZM62.886,21.289 L2.113,21.289 C0.956,21.289 0.014,20.761 0.014,20.113 L0.014,14.887 C0.014,14.238 0.956,13.711 2.113,13.711 L62.887,13.711 C64.044,13.711 64.986,14.238 64.986,14.887 L64.986,20.113 C64.986,20.761 64.044,21.289 62.886,21.289 ZM62.886,7.571 L2.113,7.571 C0.956,7.571 0.014,7.043 0.014,6.395 L0.014,1.169 C0.014,0.521 0.956,-0.007 2.113,-0.007 L62.887,-0.007 C64.044,-0.007 64.986,0.521 64.986,1.169 L64.986,6.395 C64.986,7.043 64.044,7.571 62.886,7.571 Z" class="cls-1"/>
</svg>
