<?xml version="1.0" encoding="utf-8"?>
<!-- Generator: Adobe Illustrator 19.0.1, SVG Export Plug-In . SVG Version: 6.00 Build 0)  -->
<svg version="1.1" xmlns="http://www.w3.org/2000/svg" xmlns:xlink="http://www.w3.org/1999/xlink" x="0px" y="0px"
	 viewBox="0 0 842 200" style="enable-background:new 0 0 842 200;" xml:space="preserve">
<style type="text/css">
	.st0{fill:#FFFFFF;}
	.st1{fill:#D12F30;}
</style>
<g id="logo">
	<polygon class="st0" points="43.4,144.5 169.8,7 43.4,109.3 	"/>
	<polygon class="st0" points="42.7,44.3 136,44.3 42.7,145.7 	"/>
	<polygon class="st0" points="134.9,155.5 41.7,155.5 134.9,54 	"/>
	<polygon class="st0" points="134.3,55.2 7.9,192.7 134.3,90.4 	"/>
</g>
<g id="Layer_1">
	<g id="razor_2_">
		<g>
			<path class="st0" d="M366.4,139.1h-52.2v-3.9l44-66.3h-42V64h49v3.9l-44.1,66.3h45.3V139.1z"/>
			<path class="st0" d="M446.9,101.5c0,11.9-3,21.4-8.9,28.3c-6,6.9-14.2,10.4-24.7,10.4c-10.4,0-18.7-3.5-24.6-10.4
				c-6-6.9-8.9-16.4-8.9-28.4c0-12,3-21.4,9-28.2c6-6.9,14.2-10.3,24.6-10.3c10.5,0,18.7,3.5,24.6,10.4
				C443.9,80.1,446.9,89.5,446.9,101.5z M385.4,101.5c0,10.8,2.4,19.1,7.2,24.9c4.8,5.9,11.7,8.8,20.7,8.8c9,0,16-2.9,20.7-8.7
				c4.8-5.8,7.2-14.2,7.2-25c0-10.8-2.4-19.1-7.2-24.9c-4.8-5.8-11.7-8.7-20.6-8.7c-8.9,0-15.8,2.9-20.7,8.7
				C387.8,82.5,385.4,90.8,385.4,101.5z"/>
		</g>
		<path class="st0" d="M208.3,104.9c5.4-1.5,9.4-4,12.1-7.5c2.7-3.5,4-7.7,4-12.7c0-6.9-2.2-12.1-6.7-15.5
			c-4.5-3.4-11.3-5.2-20.7-5.2h-17.9v4.3v0.4h5.2h12.4c7.7,0,13.3,1.3,16.8,3.9c3.4,2.6,5.1,6.8,5.1,12.5c0,5.5-1.7,9.7-5.2,12.5
			c-3.5,2.8-8.4,4.2-14.7,4.2h-14.3v0h-5.2v37.3h5.2v-32.7h18.7l19.4,32.7h6.3L208.3,104.9z"/>
		<path class="st0" d="M488.4,104.9c5.4-1.5,9.4-4,12.1-7.5c2.7-3.5,4-7.7,4-12.7c0-6.9-2.2-12.1-6.7-15.5
			c-4.5-3.4-11.3-5.2-20.7-5.2h-17.9v4.7h5.2h8.8h3.6c7.7,0,13.3,1.3,16.8,3.9c3.4,2.6,5.1,6.8,5.1,12.5c0,5.5-1.7,9.7-5.2,12.5
			c-3.5,2.8-8.4,4.2-14.7,4.2h-5.5h-8.8h-5.2v37.3h5.2v-32.7h18.7l19.4,32.7h6.3L488.4,104.9z"/>
		<path class="st0" d="M272.5,63.7h-3.3L239,139.1h5.8l7.3-18.5l9.3-23.5l6.3-16.2c1.1-2.7,2.1-5.7,3-8.9c1.2,3.8,2.2,6.7,3.1,8.8
			l6.2,16.3l9,23.5l7.3,18.5h5.9L272.5,63.7z"/>
	</g>
	<g>
		<path class="st1" d="M556.1,139.4h-8.8V71.7h-23.9v-7.8H580v7.8h-23.9V139.4z"/>
		<path class="st1" d="M649.7,139.4h-8.8v-35.5h-39.8v35.5h-8.8V63.9h8.8V96h39.8V63.9h8.8V139.4z"/>
		<path class="st1" d="M671.5,139.4V63.9h8.8v75.5H671.5z"/>
		<path class="st1" d="M761,139.4h-10L709.7,76h-0.4c0.6,7.4,0.8,14.3,0.8,20.5v42.9H702V63.9h9.9l41.2,63.1h0.4
			c-0.1-0.9-0.2-3.9-0.5-9c-0.2-5-0.3-8.7-0.3-10.8V63.9h8.2V139.4z"/>
		<path class="st1" d="M835.3,139.4h-10.3l-27.5-36.6l-7.9,7v29.6h-8.8V63.9h8.8v37.4l34.2-37.4h10.4l-30.4,32.8L835.3,139.4z"/>
	</g>
</g>
</svg>
